<svg width="16" height="14" viewBox="0 0 16 14" fill="none" xmlns="http://www.w3.org/2000/svg">
<path fill-rule="evenodd" clip-rule="evenodd" d="M5.99814 11.117C6.39716 11.5815 7.11617 11.5815 7.5152 11.117L15.5475 1.76704C15.8078 1.46413 15.8078 1.01657 15.5475 0.713662V0.713662C15.225 0.338239 14.6439 0.338239 14.3214 0.713662L7.5152 8.63633C7.11617 9.10082 6.39716 9.10082 5.99814 8.63633L3.99135 6.30034C3.43428 5.65189 3.89501 4.64871 4.74988 4.64871H5.87961C6.36399 4.64871 6.75667 4.25604 6.75667 3.77165V3.77165C6.75667 3.28726 6.36399 2.89459 5.87961 2.89459H1C0.447715 2.89459 0 3.3423 0 3.89459L0 10.0062C0 10.4223 0.337335 10.7596 0.75346 10.7596V10.7596C1.16958 10.7596 1.50692 10.4223 1.50692 10.0062L1.50692 8.5877C1.50692 7.65985 2.66083 7.23226 3.26545 7.93607L5.99814 11.117Z" fill="#2B2B2B"/>
</svg>
