<svg width="25" height="15" viewBox="0 0 25 15" fill="none" xmlns="http://www.w3.org/2000/svg">
<path fill-rule="evenodd" clip-rule="evenodd" d="M19.695 1C19.695 0.447715 19.2473 0 18.695 0H9.12542C8.8602 0 8.60585 0.105357 8.41831 0.292893L3.70563 5.00558C3.07566 5.63554 1.99852 5.18937 1.99852 4.29847V2.40868C1.99852 1.85639 1.55081 1.40868 0.998524 1.40868C0.446238 1.40868 -0.00147629 1.85639 -0.00147629 2.40868V9.1269C-0.00147629 9.67918 0.446239 10.1269 0.998524 10.1269H7.82512C8.3774 10.1269 8.82512 9.67918 8.82512 9.1269C8.82512 8.57461 8.3774 8.1269 7.82512 8.1269H5.82695C4.93604 8.1269 4.48988 7.04976 5.11984 6.41979L9.24674 2.29289C9.43428 2.10536 9.68863 2 9.95385 2H16.695C17.2473 2 17.695 2.44772 17.695 3V8.64965C17.695 8.9261 17.8095 9.19021 18.0112 9.37926L23.1115 14.1598C23.5044 14.528 24.1185 14.5181 24.4992 14.1373C24.8988 13.7378 24.8871 13.0865 24.4735 12.7016L20.0138 8.55115C19.8105 8.36198 19.695 8.0968 19.695 7.81912V1Z" fill="#322F2C"/>
</svg>
