<svg width="352" height="169" viewBox="0 0 352 169" fill="none" xmlns="http://www.w3.org/2000/svg">
<g clip-path="url(#clip0_425_192)">
<path d="M237.184 50.98C237.184 50.98 247.885 64.5416 275.204 86.3109C302.522 108.08 307.863 29.17 307.863 29.17C307.863 29.17 263.001 -7.84599 279.969 42.7623C296.936 93.3705 237.184 50.98 237.184 50.98Z" fill="#676767"/>
<path d="M228.471 42.3065C270.135 -20.3325 176.153 83.9105 105.668 68.9252C35.1822 53.94 112.676 161.55 112.676 161.55C112.676 161.55 131.294 71.0521 188.819 120.462C246.344 169.871 186.808 104.946 228.471 42.3065Z" fill="url(#paint0_radial_425_192)"/>
<path d="M293.87 10.6559C269.768 -16.711 306.786 40.3726 290.927 71.496C275.067 102.619 335.176 79.8356 335.176 79.8356C335.176 79.8356 295.138 59.7636 325.49 39.0277C355.842 18.2918 317.972 38.0229 293.87 10.6559Z" fill="#262626"/>
<path d="M61.3063 20.523C36.1033 -25.0465 186.193 52.2898 186.193 52.2898C186.193 52.2898 4.79995 133.813 149.658 143.702C294.516 153.591 5.73486 171.355 49.5942 108.124C93.4536 44.8938 86.5093 66.0925 61.3063 20.523Z" fill="url(#paint1_radial_425_192)"/>
<path d="M45.4778 53.8211L54.6571 51.1455L63.0544 54.6032L62.9309 54.8914L54.6571 57.1553V58.4726L55.9744 63.7826L62.3958 68.4752L62.1076 68.7222L52.9283 70.3275L63.8365 81.8943L63.5895 82.1825H52.3932L45.4778 77.1194V53.8211ZM82.9635 60.0779L91.3607 50.9809C91.5254 50.9809 91.69 51.0083 91.8547 51.0632C92.0193 51.0907 92.1017 51.2141 92.1017 51.4337L93.7482 54.6032L86.5035 65.5526L96.6296 76.4196V76.5431C96.6296 76.6529 96.5473 76.8587 96.3826 77.1606C96.2454 77.4624 96.067 77.8192 95.8475 78.2308C95.628 78.6425 95.381 79.0678 95.1066 79.5069C94.8322 79.9459 94.5715 80.3576 94.3245 80.7418C94.0775 81.0985 93.858 81.4004 93.6659 81.6474C93.4738 81.8943 93.3366 82.0178 93.2542 82.0178H92.8014L81.3581 71.7682H80.7818L71.6025 82.1825H71.4378L68.5153 79.3011V78.7248L77.4476 65.7996L67.2392 55.5911V55.4265C67.2392 55.3167 67.3215 55.056 67.4862 54.6444C67.6508 54.2053 67.8292 53.7525 68.0213 53.286C68.2408 52.7921 68.4466 52.3667 68.6387 52.01C68.8308 51.6258 68.968 51.4337 69.0504 51.4337H69.3797L82.9635 60.0779ZM103.286 51.5983L103.616 51.3102L110.696 51.5983L123.168 59.6251L120.863 66.7875L112.754 73.3736L106.621 70.3275L106.826 82.1825L101.352 82.059H101.105L100.817 81.7708L98.3469 57.1142L103.286 51.5983ZM104.562 62.0537L110.696 66.7463L116.006 62.6712L109.873 56.7026L104.562 62.0537ZM124.374 75.4729L133.718 51.8453C133.773 51.7081 133.911 51.6395 134.13 51.6395C134.24 51.6121 134.363 51.5983 134.501 51.5983H135.036C135.447 51.6532 136.024 51.763 136.765 51.9276C137.505 52.0648 138.246 52.2158 138.987 52.3804C139.865 52.5451 140.785 52.7372 141.745 52.9567L142.033 53.2037L131.413 75.2671L140.922 73.7852L140.84 81.1122V81.3592L140.552 81.6474L128.861 81.6885L124.374 75.4729ZM156.169 52.01L163.167 53.7388L168.477 59.5016L169.918 66.7463L163.249 78.9718L155.922 81.4827L148.39 78.8483L142.75 66.1701L143.779 59.2547L156.169 52.01ZM152.382 73.1678L156.334 74.732L161.603 71.3566L162.714 65.388L161.027 59.7898L156.951 58.1844L149.089 63.4533L152.382 73.1678ZM172.604 54.1916L183.141 51.5983L196.396 52.3393L198.166 60.7365L192.321 66.4582C193.803 69.1475 195.134 71.5487 196.314 73.6617C196.808 74.5673 197.288 75.4592 197.754 76.3373C198.248 77.2155 198.674 77.9976 199.03 78.6836C199.415 79.3697 199.716 79.9322 199.936 80.3713C200.183 80.8104 200.306 81.0436 200.306 81.0711L200.059 81.3592H199.771L192.115 81.0711L181.454 67.8577L183.635 82.0178H174.044L173.797 81.7297L175.403 68.434L172.604 54.1916ZM179.89 61.4363H182.771L187.299 64.8117L193.226 58.7607L184.706 55.6323L178.984 57.4023L179.89 61.4363ZM203.578 56.3732L212.757 51.1455L224.077 53.8211L223.953 54.1093L218.026 58.9254L212.798 57.5258L209.299 63.124L218.726 66.2524L219.796 72.0152L210.287 68.6398L213.169 74.7731L221.484 77.8192L223.501 82.3471L210.493 82.1825L203.578 77.1194V56.3732Z" fill="#330145"/>
<path d="M9.18879 110.7L16.557 92.4653L24.2133 87.608L35.6155 116.998V117.245C35.6155 117.383 35.5194 117.465 35.3273 117.492C35.1627 117.492 35.0117 117.492 34.8745 117.492H34.3806L28.7824 117.575L16.2688 111.441L9.68275 117.492H9.43577L9.18879 117.245V110.7ZM18.9444 105.102L28.2473 110.906L22.2375 95.5113L21.9905 95.2643L18.9444 105.102ZM53.5452 106.996L59.5138 92.1359C59.5687 92.0262 59.6236 91.9301 59.6785 91.8478C59.7882 91.6832 59.8706 91.6008 59.9255 91.6008L69.4753 89.872L70.5867 117.245L70.2985 117.492L64.7415 116.011L63.6713 99.5041L55.6857 117.122L51.1577 117.781L43.5426 100.327L41.7726 110.742L35.9686 107.654L35.7216 107.366L36.7095 89.4603L47.4531 92.4653L53.5452 106.996ZM75.2474 92.4653L77.9642 86.7024H96.6934L97.9283 94.3588L92.3301 97.6518L90.2308 89.5015L83.5212 93.659L96.2406 104.485L87.6375 115.722L75.1239 116.875L74.2595 115.722C73.9577 112.676 73.697 109.946 73.4774 107.531C73.3951 106.488 73.299 105.473 73.1893 104.485C73.107 103.497 73.0246 102.619 72.9423 101.85C72.86 101.055 72.7914 100.41 72.7365 99.9158C72.709 99.4218 72.6953 99.1611 72.6953 99.1337L80.0223 102.303L80.0635 108.56L86.7319 107.243L83.0684 100.204L75.2474 92.4653ZM102.681 85.5087L111.819 89.9955L121.081 90.4483L120.134 99.463L119.846 99.7511L114.618 97.0343L117.746 114.817L113.26 116.546L109.884 112.347L108.032 94.3999L100.458 92.2594V92.0125L102.681 85.5087ZM125.307 91.9301L134.486 86.7024L145.806 89.378L145.682 89.6662L139.755 94.4822L134.527 93.0827L131.028 98.6809L140.455 101.809L141.525 107.572L132.016 104.197L134.898 110.33L143.212 113.376L145.229 117.904L132.222 117.739L125.307 112.676V91.9301ZM147.274 89.7485L157.811 87.1552L171.066 87.8962L172.836 96.2934L166.991 102.015C168.473 104.704 169.804 107.106 170.984 109.219C171.478 110.124 171.958 111.016 172.424 111.894C172.918 112.772 173.344 113.554 173.7 114.241C174.085 114.927 174.386 115.489 174.606 115.928C174.853 116.367 174.976 116.601 174.976 116.628L174.729 116.916H174.441L166.785 116.628L156.124 103.415L158.305 117.575H148.714L148.467 117.287L150.073 103.991L147.274 89.7485ZM154.56 96.9932H157.441L161.969 100.369L167.896 94.3176L159.376 91.1892L153.654 92.9592L154.56 96.9932ZM178.371 90.5718L183.887 88.7606L191.626 86.9494L203.975 94.0706L203.234 99.8746L197.841 108.437L188.456 117.575L181.582 117.698L178.865 114.446L178.371 90.5718ZM195.289 102.88L197.677 96.3757L188.003 92.0948L183.393 96.2523L184.546 110.33L195.289 102.88ZM202.141 110.7L209.509 92.4653L217.165 87.608L228.567 116.998V117.245C228.567 117.383 228.471 117.465 228.279 117.492C228.114 117.492 227.963 117.492 227.826 117.492H227.332L221.734 117.575L209.221 111.441L202.634 117.492H202.388L202.141 117.245V110.7ZM211.896 105.102L221.199 110.906L215.189 95.5113L214.942 95.2643L211.896 105.102ZM246.497 106.996L252.466 92.1359C252.52 92.0262 252.575 91.9301 252.63 91.8478C252.74 91.6832 252.822 91.6008 252.877 91.6008L262.427 89.872L263.538 117.245L263.25 117.492L257.693 116.011L256.623 99.5041L248.637 117.122L244.109 117.781L236.494 100.327L234.724 110.742L228.92 107.654L228.673 107.366L229.661 89.4603L240.405 92.4653L246.497 106.996Z" fill="#54136B"/>
<path d="M363.514 132.241H285.097L252.757 164.58V147.123L285.097 114.783H319.44M319.44 114.783L307.277 102.62M319.44 114.783L307.277 126.946" stroke="black"/>
<path d="M-16.1586 156.902H62.2579L94.5977 189.242V171.784L62.2579 139.444H27.915M27.915 139.444L40.0781 127.281M27.915 139.444L40.0781 151.607" stroke="black"/>
<path d="M130.519 187.841L158.784 159.575V135.26H194.041L216.836 158.055M216.836 158.055V139.211M216.836 158.055H197.688" stroke="black"/>
<path d="M32.8334 54.7344L32.8335 32.8437H102.206L113.305 21.7441M113.305 21.7441H91.106M113.305 21.7441V43.9433" stroke="black"/>
</g>
<defs>
<radialGradient id="paint0_radial_425_192" cx="0" cy="0" r="1" gradientUnits="userSpaceOnUse" gradientTransform="translate(65.1529 128.866) rotate(-16.2484) scale(142.382 142.382)">
<stop stop-color="#1F0D8F"/>
<stop offset="0.588542" stop-color="#93C9FC"/>
<stop offset="1" stop-color="#F3C1EE"/>
</radialGradient>
<radialGradient id="paint1_radial_425_192" cx="0" cy="0" r="1" gradientUnits="userSpaceOnUse" gradientTransform="translate(215.163 106.662) rotate(-163.752) scale(142.382 142.382)">
<stop stop-color="#93C9FC"/>
<stop offset="1" stop-color="#DFED87"/>
</radialGradient>
<clipPath id="clip0_425_192">
<rect width="351" height="169" fill="white" transform="translate(0.143555)"/>
</clipPath>
</defs>
</svg>
