<svg width="26" height="26" viewBox="0 0 26 26" fill="none" xmlns="http://www.w3.org/2000/svg">
<path fill-rule="evenodd" clip-rule="evenodd" d="M11.6832 2.38716C12.2293 1.8436 13.112 1.8436 13.6581 2.38716L19.9506 8.65031L21.7322 10.432C22.1398 10.8396 22.1398 11.5005 21.7322 11.9081L21.21 12.4302C21.0908 12.5495 20.8975 12.5495 20.7783 12.4302V12.4302C20.586 12.2379 20.2571 12.3741 20.2571 12.6461V19.6003C20.2571 20.3733 19.6305 21 18.8574 21H6.48395C5.71089 21 5.0842 20.3733 5.0842 19.6003V12.6461C5.0842 12.3741 4.75537 12.2379 4.56305 12.4302V12.4302C4.44383 12.5495 4.25054 12.5495 4.13132 12.4302L3.60914 11.9081C3.20153 11.5005 3.20152 10.8396 3.60911 10.432L5.39076 8.65031L11.6832 2.38716ZM18.1697 10.4047C18.1697 10.0323 18.0213 9.67527 17.7574 9.41258L13.6581 5.33242C13.112 4.78886 12.2293 4.78887 11.6832 5.33242L7.58397 9.41258C7.32005 9.67527 7.17168 10.0323 7.17168 10.4047V17.5128C7.17168 18.2858 7.79837 18.9125 8.57143 18.9125H16.7699C17.543 18.9125 18.1697 18.2858 18.1697 17.5128V10.4047Z" fill="black"/>
<rect x="13.1914" y="10.5645" width="2.46701" height="2.46701" rx="1.23351" fill="black"/>
<rect x="13.1914" y="14.1699" width="2.46701" height="2.46701" rx="1.23351" fill="black"/>
<rect x="9.67969" y="10.5645" width="2.46701" height="2.46701" rx="1.23351" fill="black"/>
<rect x="9.67969" y="14.1699" width="2.46701" height="2.46701" rx="1.23351" fill="black"/>
</svg>
