<svg width="25" height="24" viewBox="0 0 25 24" fill="none" xmlns="http://www.w3.org/2000/svg">
<path d="M9.59963 4.1731L9.64568 4.17188L9.69046 4.17306C9.71242 4.17432 9.73442 4.1766 9.7564 4.17993L9.77214 4.18366C9.85573 4.19709 9.93881 4.22695 10.018 4.27385L10.0687 4.30667L14.456 7.39165C14.8011 7.63427 15.2612 7.6343 15.6063 7.39173L19.9903 4.30995C20.4481 3.98816 21.0683 4.27739 21.1397 4.80819L21.1465 4.91045V15.3166C21.1465 15.5215 21.061 15.7154 20.9134 15.8532L20.8346 15.9172L15.4517 19.7013C15.1905 19.8849 14.8763 19.8695 14.6415 19.7239L10.2205 16.6137C9.87544 16.371 9.4151 16.3709 9.06995 16.6136L4.68353 19.698C4.22576 20.0198 3.60551 19.7306 3.53413 19.1997L3.52734 19.0975V8.69126C3.52734 8.48639 3.61284 8.29253 3.7604 8.15475L3.83924 8.09076L9.22217 4.30667C9.28481 4.26264 9.3505 4.23005 9.4174 4.20795L9.53726 4.18054L9.59963 4.1731ZM19.6785 8.24907C19.6785 7.43913 18.766 6.96519 18.1034 7.43098L16.1885 8.77709C15.9221 8.96434 15.7636 9.26956 15.7636 9.59517V15.7621C15.7636 16.5721 16.6761 17.046 17.3387 16.5802L19.2536 15.2341C19.5199 15.0469 19.6785 14.7417 19.6785 14.416V8.24907ZM8.91027 8.24579C8.91027 7.43586 7.99777 6.96192 7.33518 7.42771L5.42032 8.77381C5.15394 8.96106 4.99542 9.26629 4.99542 9.59189V15.7588C4.99542 16.5688 5.90792 17.0427 6.57051 16.5769L8.48537 15.2308C8.75175 15.0436 8.91027 14.7383 8.91027 14.4127V8.24579ZM11.9558 7.4277C11.2932 6.96192 10.3807 7.43586 10.3807 8.24579V14.4127C10.3807 14.7383 10.5392 15.0436 10.8056 15.2308L12.7204 16.5769C13.383 17.0427 14.2955 16.5688 14.2955 15.7588V9.59189C14.2955 9.26628 14.137 8.96106 13.8706 8.77381L11.9558 7.4277Z" fill="black" stroke="black"/>
</svg>
