<svg width="55" height="54" viewBox="0 0 55 54" fill="none" xmlns="http://www.w3.org/2000/svg">
<path d="M13.6325 36.5566C12.4609 37.7282 12.476 39.6427 13.6475 40.8143C14.8191 41.9859 16.7336 42.0009 17.9052 40.8293L25.4812 33.2534C26.6528 32.0818 28.5523 32.0818 29.7238 33.2534L36.4999 40.0294C37.6308 41.1604 39.4645 41.1604 40.5954 40.0294C41.7264 38.8985 41.7264 37.0648 40.5954 35.9338L33.8194 29.1578C32.6478 27.9862 32.6478 26.0867 33.8194 24.9152L41.3954 17.3392C42.5669 16.1676 42.5519 14.2531 41.3803 13.0815C40.2088 11.9099 38.2942 11.8949 37.1227 13.0665L29.5467 20.6425C28.3751 21.814 26.4756 21.814 25.304 20.6425L18.528 13.8664C17.397 12.7354 15.5634 12.7354 14.4324 13.8664C13.3015 14.9974 13.3015 16.831 14.4324 17.962L21.2085 24.738C22.3801 25.9096 22.3801 27.8091 21.2085 28.9807L13.6325 36.5566Z" fill="black"/>
</svg>
