<svg width="332" height="236" viewBox="0 0 332 236" fill="none" xmlns="http://www.w3.org/2000/svg">
<path d="M175.573 103.875L198.006 100L198.937 100.512L217.77 155.864L217.406 156.863L202.403 172.968L148.495 138.309L170.712 172.196L152.868 196.141L151.869 195.778L147.399 171.106L129.502 140.522L128.083 136.746L124.419 126.671L123 122.894L123.512 121.963L124.159 121.72L158.356 118.349L198.162 148.58L175.573 103.875Z" fill="#322F2C"/>
<path d="M222.495 134.158L248.73 121.583C253.624 122.914 258.413 124.336 263.098 125.849C267.804 127.288 272.486 128.959 277.144 130.863L277.771 131.631L242.501 147.124L263.14 168.743L263.767 196.746L234.901 205.38L207.88 193.612L207.424 192.652L207.606 191.985L221.267 183.038L245.247 183.587L245.429 182.919L230.099 164.178L222.495 134.158Z" fill="#322F2C"/>
<path d="M282.15 132.57L308.862 130.75L329.76 145.239L329.25 145.953L305.261 147.189L304.472 150.792L304.894 166.106L319.648 182.789L318.712 183.292L292.641 182.184L315.55 220.359L314.702 220.999L284.076 214.292L268.193 196.3L282.15 132.57Z" fill="#322F2C"/>
<path d="M58.1721 103.949L64.5236 80L117.141 135.129L117.2 136.222L80.8231 144.358L39.5412 136.007L56.0498 158.977L60.8099 188.894L59.7171 188.953C56.2175 185.401 52.7713 181.962 49.3785 178.637C46.4774 175.826 43.4943 172.93 40.4293 169.948C37.3643 166.966 34.6791 164.496 32.3738 162.54C29.7407 160.239 27.3587 157.973 25.2278 155.74C23.1541 153.453 20.9438 151.022 18.5969 148.449C16.3073 145.821 13.7158 142.934 10.8225 139.788C7.93184 136.53 4.32433 132.807 0 128.621L34.2849 116.574L74.4348 126.661L58.1721 103.949Z" fill="#322F2C"/>
<path d="M88.4105 53.5913L104.034 39.3606L129.844 34.8466L149.665 43.6224L161.651 67.5094L161.084 98.1294L141.305 114.904L110.972 116.345L92.6565 99.4389L83.3618 76.5148L88.4105 53.5913ZM107.04 86.1573L123.836 100.782L135.885 99.0616L143.756 90.6957L145.447 78.946L140.885 67.6402L125.878 52.5771L111.102 55.2486L104.347 62.1921L102.364 74.6431L107.04 86.1573Z" fill="#322F2C"/>
<path d="M196.634 32.968L174.313 4.89517L197.303 3.55924L198.056 4.22895L198.671 20.959L194.701 65.185L190.952 92.7513L169.548 88.6443L168.67 87.8629L170.991 29.5829L196.634 32.968Z" fill="#322F2C"/>
<path d="M200.859 58.7603L202.621 40.472L253.459 22.2323L264.267 41.8119L252.279 56.2024L238.643 36.1238L224.479 53.943L269.548 70.9417L257.139 109.823L224.295 125.138L220.826 122.851C217.041 114.877 213.674 107.719 210.726 101.378C209.487 98.6277 208.238 95.9652 206.978 93.3905C205.792 90.7891 204.713 88.4857 203.742 86.4802C202.743 84.4002 201.929 82.7165 201.299 81.4292C200.743 80.1151 200.452 79.4208 200.425 79.3464L223.401 80.8142L229.606 97.7575L246.423 87.6879L229.624 72.1494L200.859 58.7603Z" fill="#322F2C"/>
<path d="M77 175.052L97.347 145.943L125.274 142L125.354 142.901L116.267 168.391L102.626 166.821L96.517 177.779L142.849 178.508L133.568 199.118L116.888 197.158L111.768 214.726L145.267 210.622L160.634 220.427L132.185 235.697L107.709 232.264L77 175.052Z" fill="#322F2C"/>
</svg>
