<svg width="14" height="18" viewBox="0 0 14 18" fill="none" xmlns="http://www.w3.org/2000/svg">
<path d="M10.7529 5.48118C10.7529 7.59667 9.06342 9.29439 7.00047 9.29439C4.93751 9.29439 3.24805 7.59667 3.24805 5.48118C3.24805 3.36569 4.93751 1.66797 7.00047 1.66797C9.06342 1.66797 10.7529 3.36569 10.7529 5.48118Z" fill="black" stroke="black" stroke-width="1.5"/>
<path d="M1.05602 15.3159C1.34604 14.3101 1.88158 13.3854 2.62416 12.6328C3.78643 11.4548 5.36065 10.7949 6.99994 10.7949C8.63924 10.7949 10.2135 11.4548 11.3757 12.6328C12.1183 13.3854 12.6538 14.3101 12.9439 15.3159C13.0174 15.571 12.9517 15.7987 12.7798 15.9864C12.5971 16.1859 12.2938 16.332 11.9432 16.332L2.05664 16.332C1.70611 16.332 1.40282 16.1859 1.22008 15.9864C1.04816 15.7987 0.982445 15.571 1.05602 15.3159Z" fill="black" stroke="black" stroke-width="1.5"/>
</svg>
