<svg width="17" height="17" viewBox="0 0 17 17" fill="none" xmlns="http://www.w3.org/2000/svg">
<mask id="path-1-inside-1_1310_1290" fill="white">
<path fill-rule="evenodd" clip-rule="evenodd" d="M8.24615 16.4923C12.8004 16.4923 16.4923 12.8004 16.4923 8.24615C16.4923 3.69193 12.8004 0 8.24615 0C3.69193 0 0 3.69193 0 8.24615C0 12.8004 3.69193 16.4923 8.24615 16.4923ZM3.47283 4.81947C4.29151 4.61701 5.39408 4.46439 6.31987 4.42541C6.89019 4.40141 6.90502 4.40136 7.49823 4.42332C9.5418 4.49889 11.4099 4.93067 13.1995 5.74103C13.8959 6.05638 13.9768 6.11152 14.0947 6.35088C14.1544 6.47223 14.1649 6.51796 14.1658 6.66168C14.1668 6.80558 14.157 6.85105 14.0993 6.97303C14.0057 7.17081 13.8561 7.32966 13.6832 7.41479C13.5541 7.47836 13.5284 7.48338 13.3825 7.47369C13.2405 7.46426 13.1842 7.44485 12.8713 7.29733C12.4229 7.08594 12.0597 6.93337 11.6489 6.7838C9.5456 6.0181 7.24885 5.78953 4.96003 6.11815C4.67859 6.15857 4.28215 6.23434 3.70779 6.35751C3.46054 6.41052 3.31462 6.39925 3.148 6.31424C2.68862 6.0799 2.60386 5.44064 2.98072 5.05288C3.10603 4.92395 3.16659 4.8952 3.47283 4.81947ZM3.65969 8.0972C4.04604 7.95298 5.26675 7.73621 6.01487 7.67896C6.44296 7.64622 7.58506 7.65156 8.00368 7.68826C9.58637 7.82701 11.0243 8.21877 12.3878 8.88275C12.8606 9.11294 12.9302 9.16613 13.0223 9.36727C13.0554 9.43946 13.068 9.51112 13.0677 9.62487C13.0674 9.76292 13.0571 9.80252 12.9852 9.9442C12.8841 10.1435 12.7349 10.3364 12.6148 10.4234C12.5399 10.4777 12.5027 10.4892 12.4015 10.4892C12.2927 10.4892 12.2345 10.4678 11.8829 10.299C10.3683 9.5718 8.91995 9.22091 7.2565 9.17817C6.22267 9.1516 5.31321 9.25049 4.25936 9.50405C3.85255 9.60193 3.78055 9.60358 3.58525 9.51956C3.44037 9.45724 3.28994 9.28998 3.24615 9.1425C3.13027 8.75234 3.34264 8.21554 3.65969 8.0972ZM4.58645 10.9619C5.13861 10.8244 5.76758 10.7263 6.33352 10.6892C7.78748 10.5942 9.27728 10.8321 10.6715 11.3821C11.061 11.5358 11.7205 11.8583 11.8152 11.9414C12.0081 12.1108 12.1066 12.6479 11.994 12.9165C11.921 13.0908 11.7127 13.2363 11.537 13.2359C11.3862 13.2354 11.2429 13.1865 10.9264 13.0275C10.014 12.569 9.13176 12.2994 8.0696 12.1547C7.58335 12.0885 6.45966 12.0828 5.95993 12.1441C5.55819 12.1933 4.97878 12.3093 4.60842 12.4145C4.24468 12.5178 4.10384 12.5221 3.94282 12.4344C3.74748 12.3281 3.65248 12.156 3.65248 11.9084C3.65248 11.74 3.69933 11.5522 3.78552 11.375C3.89674 11.1464 3.94462 11.1217 4.58645 10.9619Z"/>
</mask>
<path fill-rule="evenodd" clip-rule="evenodd" d="M8.24615 16.4923C12.8004 16.4923 16.4923 12.8004 16.4923 8.24615C16.4923 3.69193 12.8004 0 8.24615 0C3.69193 0 0 3.69193 0 8.24615C0 12.8004 3.69193 16.4923 8.24615 16.4923ZM3.47283 4.81947C4.29151 4.61701 5.39408 4.46439 6.31987 4.42541C6.89019 4.40141 6.90502 4.40136 7.49823 4.42332C9.5418 4.49889 11.4099 4.93067 13.1995 5.74103C13.8959 6.05638 13.9768 6.11152 14.0947 6.35088C14.1544 6.47223 14.1649 6.51796 14.1658 6.66168C14.1668 6.80558 14.157 6.85105 14.0993 6.97303C14.0057 7.17081 13.8561 7.32966 13.6832 7.41479C13.5541 7.47836 13.5284 7.48338 13.3825 7.47369C13.2405 7.46426 13.1842 7.44485 12.8713 7.29733C12.4229 7.08594 12.0597 6.93337 11.6489 6.7838C9.5456 6.0181 7.24885 5.78953 4.96003 6.11815C4.67859 6.15857 4.28215 6.23434 3.70779 6.35751C3.46054 6.41052 3.31462 6.39925 3.148 6.31424C2.68862 6.0799 2.60386 5.44064 2.98072 5.05288C3.10603 4.92395 3.16659 4.8952 3.47283 4.81947ZM3.65969 8.0972C4.04604 7.95298 5.26675 7.73621 6.01487 7.67896C6.44296 7.64622 7.58506 7.65156 8.00368 7.68826C9.58637 7.82701 11.0243 8.21877 12.3878 8.88275C12.8606 9.11294 12.9302 9.16613 13.0223 9.36727C13.0554 9.43946 13.068 9.51112 13.0677 9.62487C13.0674 9.76292 13.0571 9.80252 12.9852 9.9442C12.8841 10.1435 12.7349 10.3364 12.6148 10.4234C12.5399 10.4777 12.5027 10.4892 12.4015 10.4892C12.2927 10.4892 12.2345 10.4678 11.8829 10.299C10.3683 9.5718 8.91995 9.22091 7.2565 9.17817C6.22267 9.1516 5.31321 9.25049 4.25936 9.50405C3.85255 9.60193 3.78055 9.60358 3.58525 9.51956C3.44037 9.45724 3.28994 9.28998 3.24615 9.1425C3.13027 8.75234 3.34264 8.21554 3.65969 8.0972ZM4.58645 10.9619C5.13861 10.8244 5.76758 10.7263 6.33352 10.6892C7.78748 10.5942 9.27728 10.8321 10.6715 11.3821C11.061 11.5358 11.7205 11.8583 11.8152 11.9414C12.0081 12.1108 12.1066 12.6479 11.994 12.9165C11.921 13.0908 11.7127 13.2363 11.537 13.2359C11.3862 13.2354 11.2429 13.1865 10.9264 13.0275C10.014 12.569 9.13176 12.2994 8.0696 12.1547C7.58335 12.0885 6.45966 12.0828 5.95993 12.1441C5.55819 12.1933 4.97878 12.3093 4.60842 12.4145C4.24468 12.5178 4.10384 12.5221 3.94282 12.4344C3.74748 12.3281 3.65248 12.156 3.65248 11.9084C3.65248 11.74 3.69933 11.5522 3.78552 11.375C3.89674 11.1464 3.94462 11.1217 4.58645 10.9619Z" fill="#322F2C"/>
<path d="M14.5513 3.18221L14.9428 2.87122L14.9428 2.87122L14.5513 3.18221ZM16.0818 6.28051L16.5673 6.16105L16.5673 6.16103L16.0818 6.28051ZM15.6589 11.4296L16.1188 11.626L16.1188 11.626L15.6589 11.4296ZM13.9495 13.9295L14.3029 14.2832L14.3029 14.2832L13.9495 13.9295ZM0.187232 8.06083L0.687154 8.06967L0.687155 8.06966L0.187232 8.06083ZM0.411539 6.26759L-0.0736188 6.14667L-0.0736199 6.14667L0.411539 6.26759ZM12.9834 2.31489C13.3171 2.5813 13.8964 3.16162 14.1598 3.49321L14.9428 2.87122C14.6323 2.48025 13.9995 1.8465 13.6073 1.5334L12.9834 2.31489ZM14.1598 3.49321C14.858 4.37216 15.3354 5.33996 15.5963 6.4L16.5673 6.16103C16.2712 4.95795 15.7283 3.86012 14.9428 2.87122L14.1598 3.49321ZM15.5963 6.39998C15.7513 7.03005 15.81 7.52639 15.81 8.22565H16.81C16.81 7.45108 16.7428 6.87421 16.5673 6.16105L15.5963 6.39998ZM15.81 8.22565C15.81 9.31358 15.6198 10.2483 15.1991 11.2332L16.1188 11.626C16.5932 10.5153 16.81 9.44676 16.81 8.22565H15.81ZM15.1991 11.2332C14.8316 12.0937 14.3015 12.8707 13.596 13.5759L14.3029 14.2832C15.0938 13.4927 15.6983 12.6103 16.1188 11.626L15.1991 11.2332ZM13.596 13.5759C12.8802 14.2914 12.1433 14.7936 11.2242 15.193L11.6228 16.1102C12.6579 15.6603 13.4992 15.0866 14.3029 14.2832L13.596 13.5759ZM0.89618 10.0622C0.725576 9.38116 0.672638 8.8905 0.687154 8.06967L-0.312689 8.05199C-0.328543 8.94844 -0.26857 9.52787 -0.073849 10.3052L0.89618 10.0622ZM0.687155 8.06966C0.700125 7.33518 0.741302 7.01201 0.896698 6.38851L-0.0736199 6.14667C-0.249355 6.85178 -0.298542 7.25091 -0.31269 8.052L0.687155 8.06966ZM0.896697 6.38851C1.21943 5.09364 1.86813 3.92684 2.80236 2.96234L2.08408 2.2666C1.028 3.35688 0.291928 4.68002 -0.0736188 6.14667L0.896697 6.38851ZM6.31987 4.42541L6.27783 3.42629L6.2778 3.42629L6.31987 4.42541ZM3.47283 4.81947L3.71289 5.79023L3.7129 5.79023L3.47283 4.81947ZM7.49823 4.42332L7.46125 5.42263L7.46128 5.42263L7.49823 4.42332ZM13.1995 5.74103L13.612 4.83007L13.612 4.83007L13.1995 5.74103ZM14.0947 6.35088L14.9919 5.90926L14.9918 5.90921L14.0947 6.35088ZM14.1658 6.66168L15.1658 6.65511L15.1658 6.65511L14.1658 6.66168ZM14.0993 6.97303L15.0032 7.40078L15.0033 7.40067L14.0993 6.97303ZM13.6832 7.41479L13.2415 6.51762L13.2415 6.51763L13.6832 7.41479ZM13.3825 7.47369L13.3162 8.47149L13.3162 8.47149L13.3825 7.47369ZM12.8713 7.29733L12.4449 8.20185L12.4449 8.20186L12.8713 7.29733ZM11.6489 6.7838L11.991 5.84414L11.9909 5.84413L11.6489 6.7838ZM4.96003 6.11815L4.81791 5.12831L4.8179 5.12831L4.96003 6.11815ZM3.70779 6.35751L3.91741 7.3353L3.91748 7.33528L3.70779 6.35751ZM3.148 6.31424L3.60244 5.42347L3.60243 5.42346L3.148 6.31424ZM2.98072 5.05288L3.69784 5.74984L3.69784 5.74983L2.98072 5.05288ZM6.01487 7.67896L5.9386 6.68187L5.93857 6.68187L6.01487 7.67896ZM3.65969 8.0972L4.00938 9.03407L4.00941 9.03405L3.65969 8.0972ZM8.00368 7.68826L8.09101 6.69208L8.09101 6.69208L8.00368 7.68826ZM12.3878 8.88275L11.95 9.78182L11.95 9.78182L12.3878 8.88275ZM13.0223 9.36727L13.9316 8.95099L13.9315 8.95087L13.0223 9.36727ZM13.0677 9.62487L12.0677 9.62216L12.0677 9.62232L13.0677 9.62487ZM12.9852 9.9442L13.8769 10.3968L13.877 10.3968L12.9852 9.9442ZM12.6148 10.4234L12.0281 9.6136L12.0281 9.61364L12.6148 10.4234ZM11.8829 10.299L12.3157 9.39753L12.3157 9.39752L11.8829 10.299ZM7.2565 9.17817L7.23081 10.1778L7.23081 10.1778L7.2565 9.17817ZM4.25936 9.50405L4.02544 8.53179L4.02543 8.53179L4.25936 9.50405ZM3.58525 9.51956L3.98042 8.60095L3.9804 8.60095L3.58525 9.51956ZM3.24615 9.1425L4.20477 8.85781L4.20476 8.85779L3.24615 9.1425ZM6.33352 10.6892L6.39877 11.6871L6.39878 11.6871L6.33352 10.6892ZM4.58645 10.9619L4.82806 11.9323L4.82809 11.9323L4.58645 10.9619ZM10.6715 11.3821L11.0385 10.4519L11.0385 10.4519L10.6715 11.3821ZM11.8152 11.9414L12.475 11.1899L12.4749 11.1899L11.8152 11.9414ZM11.994 12.9165L11.0717 12.5299L11.0717 12.5301L11.994 12.9165ZM11.537 13.2359L11.5342 14.2359L11.5343 14.2359L11.537 13.2359ZM10.9264 13.0275L10.4774 13.921L10.4774 13.921L10.9264 13.0275ZM8.0696 12.1547L7.93459 13.1456L7.93461 13.1456L8.0696 12.1547ZM5.95993 12.1441L6.08161 13.1366L6.08162 13.1366L5.95993 12.1441ZM4.60842 12.4145L4.33513 11.4525L4.33505 11.4526L4.60842 12.4145ZM3.94282 12.4344L4.42088 11.5561L4.42087 11.5561L3.94282 12.4344ZM3.78552 11.375L4.68476 11.8125L4.68477 11.8125L3.78552 11.375ZM15.4923 8.24615C15.4923 12.2481 12.2481 15.4923 8.24615 15.4923V17.4923C13.3527 17.4923 17.4923 13.3527 17.4923 8.24615H15.4923ZM8.24615 1C12.2481 1 15.4923 4.24421 15.4923 8.24615H17.4923C17.4923 3.13964 13.3527 -1 8.24615 -1V1ZM1 8.24615C1 4.24421 4.24421 1 8.24615 1V-1C3.13964 -1 -1 3.13964 -1 8.24615H1ZM8.24615 15.4923C4.24421 15.4923 1 12.2481 1 8.24615H-1C-1 13.3527 3.13964 17.4923 8.24615 17.4923V15.4923ZM6.2778 3.42629C5.29169 3.46782 4.12232 3.62873 3.23276 3.84872L3.7129 5.79023C4.4607 5.6053 5.49646 5.46097 6.36194 5.42452L6.2778 3.42629ZM7.53522 3.424C6.91667 3.40111 6.87546 3.40114 6.27783 3.42629L6.36191 5.42452C6.90492 5.40167 6.89337 5.40162 7.46125 5.42263L7.53522 3.424ZM13.612 4.83007C11.6993 3.96398 9.70308 3.50417 7.53519 3.424L7.46128 5.42263C9.38052 5.49361 11.1205 5.89737 12.787 6.65199L13.612 4.83007ZM14.9918 5.90921C14.8827 5.68763 14.7338 5.45699 14.427 5.24801C14.2175 5.10528 13.932 4.97497 13.612 4.83007L12.787 6.65198C12.961 6.73078 13.0822 6.78692 13.1722 6.83154C13.2161 6.85331 13.2472 6.86974 13.2694 6.88216C13.2803 6.88823 13.2881 6.89283 13.2934 6.89608C13.2987 6.89932 13.301 6.9009 13.301 6.90089C13.2963 6.89767 13.2608 6.87192 13.2224 6.82403C13.1898 6.78331 13.1792 6.7555 13.1975 6.79255L14.9918 5.90921ZM15.1658 6.65511C15.1652 6.57078 15.163 6.43171 15.127 6.27469C15.0901 6.11319 15.03 5.98673 14.9919 5.90926L13.1974 6.7925C13.219 6.83638 13.1941 6.79346 13.1775 6.72109C13.1694 6.68586 13.1666 6.65882 13.1657 6.64694C13.165 6.63869 13.1657 6.64135 13.1658 6.66826L15.1658 6.65511ZM15.0033 7.40067C15.04 7.32299 15.098 7.196 15.1325 7.03439C15.166 6.87754 15.1663 6.73891 15.1658 6.65511L13.1658 6.66825C13.166 6.69543 13.1654 6.69836 13.166 6.69041C13.1667 6.67884 13.1691 6.65196 13.1766 6.61675C13.1921 6.54435 13.2163 6.50109 13.1954 6.5454L15.0033 7.40067ZM14.1249 8.31196C14.5276 8.11368 14.8268 7.77361 15.0032 7.40078L13.1954 6.54529C13.192 6.55249 13.1898 6.554 13.1931 6.55048C13.1961 6.54731 13.2103 6.53296 13.2415 6.51762L14.1249 8.31196ZM13.3162 8.47149C13.3777 8.47557 13.5449 8.48958 13.7313 8.45308C13.9196 8.4162 14.0693 8.33932 14.1249 8.31195L13.2415 6.51763C13.2112 6.53255 13.2133 6.53082 13.2266 6.5254C13.2466 6.5173 13.2893 6.50163 13.347 6.49035C13.4043 6.47912 13.449 6.4776 13.4688 6.47752C13.4819 6.47747 13.4832 6.47817 13.4487 6.47588L13.3162 8.47149ZM12.4449 8.20186C12.5896 8.27009 12.733 8.33712 12.8648 8.38261C13.0435 8.44427 13.186 8.46284 13.3162 8.47149L13.4487 6.47588C13.4302 6.47465 13.442 6.47477 13.4647 6.47887C13.491 6.48362 13.5105 6.48969 13.5171 6.49198C13.5189 6.49257 13.5064 6.48831 13.4668 6.47083C13.4276 6.45354 13.375 6.42924 13.2977 6.3928L12.4449 8.20186ZM11.3068 7.72346C11.6855 7.86135 12.0205 8.00179 12.4449 8.20185L13.2977 6.3928C12.8253 6.1701 12.4339 6.00539 11.991 5.84414L11.3068 7.72346ZM5.10216 7.108C7.23349 6.80199 9.36355 7.01603 11.3068 7.72347L11.9909 5.84413C9.72766 5.02017 7.26421 4.77707 4.81791 5.12831L5.10216 7.108ZM3.91748 7.33528C4.48772 7.21299 4.85639 7.14329 5.10217 7.108L4.8179 5.12831C4.50079 5.17384 4.07657 5.25569 3.4981 5.37975L3.91748 7.33528ZM2.69357 7.20502C2.87616 7.29817 3.08181 7.3662 3.3206 7.38466C3.54298 7.40185 3.74635 7.37197 3.91741 7.3353L3.49817 5.37973C3.42199 5.39606 3.42877 5.38705 3.47472 5.39061C3.5002 5.39258 3.52835 5.39757 3.55598 5.40579C3.58253 5.41368 3.59896 5.42169 3.60244 5.42347L2.69357 7.20502ZM2.26361 4.35592C1.46843 5.1741 1.57104 6.63238 2.69358 7.20503L3.60243 5.42346C3.69533 5.47085 3.73494 5.55569 3.74209 5.60963C3.749 5.66169 3.73242 5.71425 3.69784 5.74984L2.26361 4.35592ZM3.23277 3.84872C3.09304 3.88327 2.90443 3.93015 2.73036 4.01272C2.5068 4.11876 2.36342 4.25322 2.2636 4.35593L3.69784 5.74983C3.70645 5.74097 3.70874 5.73894 3.70696 5.7406C3.70475 5.74265 3.69685 5.74989 3.68425 5.75976C3.67117 5.77 3.65522 5.78139 3.63686 5.79275C3.61856 5.80407 3.60168 5.81301 3.58749 5.81974C3.57379 5.82624 3.56458 5.82974 3.56211 5.83065C3.55995 5.83145 3.56318 5.83018 3.57429 5.82681C3.58544 5.82343 3.60175 5.81878 3.62549 5.81248C3.64918 5.80619 3.67764 5.79895 3.71289 5.79023L3.23277 3.84872ZM5.93857 6.68187C5.52078 6.71384 4.99376 6.78794 4.52677 6.87087C4.08539 6.94925 3.59934 7.05233 3.30996 7.16035L4.00941 9.03405C4.10639 8.99785 4.42387 8.92043 4.87646 8.84006C5.30345 8.76424 5.76084 8.70132 6.09117 8.67604L5.93857 6.68187ZM8.09101 6.69208C7.61681 6.65051 6.41998 6.64505 5.9386 6.68187L6.09114 8.67605C6.46593 8.64738 7.55331 8.65261 7.91634 8.68444L8.09101 6.69208ZM12.8256 7.98368C11.347 7.26366 9.7896 6.84099 8.09101 6.69208L7.91634 8.68444C9.38313 8.81303 10.7016 9.17389 11.95 9.78182L12.8256 7.98368ZM13.9315 8.95087C13.8448 8.76149 13.717 8.54142 13.4547 8.34113C13.2718 8.20145 13.0383 8.08723 12.8256 7.98367L11.95 9.78182C12.0667 9.83863 12.1424 9.87676 12.1956 9.90571C12.2501 9.93535 12.2554 9.94177 12.2409 9.93068C12.2316 9.92353 12.2157 9.9105 12.1967 9.89138C12.1771 9.87176 12.1588 9.85026 12.1427 9.82806C12.112 9.78604 12.1013 9.75766 12.1132 9.78367L13.9315 8.95087ZM14.0677 9.62758C14.0683 9.42707 14.045 9.19864 13.9316 8.95099L12.1131 9.78355C12.105 9.76594 12.0965 9.74458 12.0889 9.72027C12.0814 9.69597 12.0761 9.67345 12.0727 9.65401C12.0663 9.61733 12.0678 9.60034 12.0677 9.62216L14.0677 9.62758ZM13.877 10.3968C13.9132 10.3253 13.98 10.1941 14.0215 10.0333C14.0661 9.8606 14.0675 9.71105 14.0677 9.62742L12.0677 9.62232C12.0677 9.64825 12.067 9.64462 12.0683 9.62921C12.0701 9.60811 12.0746 9.57379 12.0851 9.53302C12.0952 9.49395 12.1062 9.4672 12.1096 9.45934C12.1114 9.45508 12.1089 9.46128 12.0935 9.49163L13.877 10.3968ZM13.2014 11.2333C13.4989 11.0178 13.7372 10.6721 13.8769 10.3968L12.0935 9.4916C12.072 9.53403 12.0433 9.57897 12.016 9.61433C12.0029 9.63125 11.9942 9.64069 11.9916 9.64337C11.9874 9.64771 11.9992 9.63459 12.0281 9.6136L13.2014 11.2333ZM12.4015 11.4892C12.4768 11.4892 12.6337 11.4874 12.8125 11.4323C12.9998 11.3746 13.1327 11.2831 13.2015 11.2333L12.0281 9.61364C12.022 9.61808 12.0989 9.55939 12.2236 9.52098C12.3397 9.4852 12.4275 9.48915 12.4015 9.48915V11.4892ZM11.45 11.2005C11.7358 11.3377 12.0176 11.4892 12.4015 11.4892V9.48915C12.4098 9.48915 12.448 9.48961 12.4979 9.49843C12.5451 9.50677 12.5752 9.51768 12.5775 9.51851C12.5781 9.51873 12.5735 9.51705 12.5617 9.51207C12.55 9.50712 12.5336 9.49997 12.5109 9.48966C12.4645 9.46854 12.403 9.43942 12.3157 9.39753L11.45 11.2005ZM7.23081 10.1778C8.75174 10.2169 10.0614 10.5338 11.4501 11.2005L12.3157 9.39752C10.6751 8.60983 9.08817 8.2249 7.28219 8.1785L7.23081 10.1778ZM4.49329 10.4763C5.46626 10.2422 6.28846 10.1536 7.23081 10.1778L7.28219 8.1785C6.15689 8.14958 5.16016 8.25878 4.02544 8.53179L4.49329 10.4763ZM3.19009 10.4382C3.34508 10.5048 3.56557 10.5867 3.86599 10.5798C4.08597 10.5747 4.31361 10.5195 4.49329 10.4763L4.02543 8.53179C3.97707 8.54343 3.93709 8.55281 3.903 8.56045C3.8688 8.56811 3.84371 8.5733 3.82499 8.57682C3.80622 8.58035 3.79762 8.58149 3.79618 8.58167C3.79507 8.5818 3.80391 8.58065 3.81999 8.58028C3.83685 8.57989 3.85935 8.58041 3.88576 8.5833C3.91243 8.58622 3.93693 8.59087 3.95803 8.59614C3.97827 8.60119 3.99162 8.60588 3.99545 8.60728C3.99846 8.60837 3.99503 8.60724 3.98042 8.60095L3.19009 10.4382ZM2.28753 9.42719C2.36314 9.68182 2.50464 9.88754 2.63426 10.0317C2.76489 10.1769 2.95189 10.3357 3.19011 10.4382L3.9804 8.60095C4.03267 8.62343 4.06609 8.64653 4.08277 8.65922C4.10064 8.67282 4.1127 8.68468 4.12133 8.69427C4.1299 8.70381 4.14116 8.71786 4.15383 8.73888C4.16558 8.75839 4.18695 8.79782 4.20477 8.85781L2.28753 9.42719ZM3.30999 7.16034C2.78014 7.35811 2.49247 7.81696 2.3607 8.15004C2.21967 8.5065 2.1522 8.97154 2.28753 9.42721L4.20476 8.85779C4.21657 8.89755 4.21363 8.9169 4.2141 8.91101C4.21449 8.90616 4.21653 8.89571 4.22044 8.8858C4.22489 8.87457 4.22377 8.88366 4.20398 8.90673C4.18592 8.92778 4.12593 8.99056 4.00938 9.03407L3.30999 7.16034ZM6.26827 9.69137C5.64265 9.73228 4.95466 9.83966 4.3448 9.99153L4.82809 11.9323C5.32256 11.8091 5.8925 11.7202 6.39877 11.6871L6.26827 9.69137ZM11.0385 10.4519C9.51098 9.8493 7.8738 9.58637 6.26826 9.69138L6.39878 11.6871C7.70115 11.6019 9.04358 11.8149 10.3046 12.3124L11.0385 10.4519ZM12.4749 11.1899C12.3517 11.0817 12.1863 10.9933 12.1303 10.9627C12.0318 10.9089 11.9141 10.849 11.7932 10.7899C11.5541 10.6729 11.2663 10.5417 11.0385 10.4519L10.3046 12.3123C10.4663 12.3761 10.7029 12.483 10.9146 12.5865C11.0191 12.6377 11.1084 12.6835 11.1723 12.7184C11.2048 12.7361 11.2239 12.7473 11.2323 12.7524C11.256 12.7669 11.2129 12.7433 11.1555 12.6929L12.4749 11.1899ZM12.9162 13.3031C13.0801 12.9123 13.0534 12.4873 13.0028 12.2114C12.9738 12.0533 12.9264 11.8849 12.8552 11.7235C12.7893 11.5744 12.6741 11.3648 12.475 11.1899L11.1554 12.6928C11.0992 12.6434 11.0663 12.5988 11.0507 12.5754C11.0343 12.5508 11.027 12.5346 11.0256 12.5314C11.0235 12.5267 11.0299 12.5411 11.0356 12.5721C11.0411 12.6021 11.0419 12.6257 11.0415 12.6351C11.0413 12.6389 11.0413 12.633 11.044 12.6185C11.0466 12.6048 11.0536 12.5732 11.0717 12.5299L12.9162 13.3031ZM11.5343 14.2359C11.8819 14.2368 12.1753 14.1022 12.3768 13.9615C12.5824 13.8178 12.7926 13.5982 12.9163 13.303L11.0717 12.5301C11.1223 12.4092 11.1919 12.3495 11.2312 12.322C11.2664 12.2975 11.3678 12.2354 11.5398 12.2359L11.5343 14.2359ZM10.4774 13.921C10.7935 14.0799 11.125 14.2347 11.5342 14.2359L11.5398 12.2359C11.5583 12.2359 11.5795 12.2377 11.5997 12.2413C11.6182 12.2447 11.6255 12.2477 11.6168 12.2448C11.6069 12.2414 11.5841 12.2328 11.5423 12.2142C11.5006 12.1956 11.4469 12.1699 11.3755 12.134L10.4774 13.921ZM7.93461 13.1456C8.89291 13.2761 9.66838 13.5144 10.4774 13.921L11.3755 12.134C10.3596 11.6235 9.3706 11.3227 8.2046 11.1639L7.93461 13.1456ZM6.08162 13.1366C6.4983 13.0855 7.53568 13.0912 7.93459 13.1456L8.20461 11.1639C7.63101 11.0857 6.42102 11.08 5.83824 11.1515L6.08162 13.1366ZM4.88171 13.3764C5.19997 13.286 5.72855 13.1799 6.08161 13.1366L5.83826 11.1515C5.38783 11.2067 4.75759 11.3325 4.33513 11.4525L4.88171 13.3764ZM3.46476 13.3128C3.68956 13.4351 3.93922 13.5043 4.22956 13.4956C4.46362 13.4886 4.6923 13.4302 4.88179 13.3764L4.33505 11.4526C4.25627 11.475 4.20651 11.4871 4.17484 11.4935C4.14312 11.4999 4.1457 11.4972 4.16964 11.4965C4.19848 11.4957 4.24664 11.4979 4.30462 11.5123C4.36191 11.5265 4.40261 11.5462 4.42088 11.5561L3.46476 13.3128ZM2.65248 11.9084C2.65248 12.1596 2.70105 12.4398 2.84892 12.7076C3.00025 12.9818 3.22097 13.1801 3.46477 13.3128L4.42087 11.5561C4.46933 11.5825 4.54488 11.6415 4.59988 11.7411C4.6514 11.8345 4.65248 11.9049 4.65248 11.9084H2.65248ZM2.88628 10.9376C2.74502 11.228 2.65248 11.5647 2.65248 11.9084H4.65248C4.65248 11.9153 4.65176 11.9078 4.65695 11.887C4.66197 11.8669 4.67089 11.841 4.68476 11.8125L2.88628 10.9376ZM4.34483 9.99152C4.0761 10.0584 3.76385 10.1326 3.52857 10.2539C3.36942 10.336 3.22 10.4481 3.09249 10.6043C2.98278 10.7388 2.9165 10.8755 2.88627 10.9376L4.68477 11.8125C4.69533 11.7908 4.69608 11.7904 4.69151 11.7983C4.6858 11.8082 4.66963 11.835 4.64217 11.8687C4.61315 11.9042 4.57826 11.9392 4.5385 11.9707C4.49999 12.0011 4.46656 12.0205 4.44544 12.0314C4.42575 12.0415 4.41652 12.0444 4.42531 12.0412C4.43408 12.0379 4.45318 12.0314 4.48819 12.0211C4.56163 11.9995 4.66537 11.9728 4.82806 11.9323L4.34483 9.99152Z" fill="#222222" mask="url(#path-1-inside-1_1310_1290)"/>
</svg>
