<svg width="13" height="13" viewBox="0 0 13 13" fill="none" xmlns="http://www.w3.org/2000/svg">
<path d="M5.88531 1.27176C5.98536 0.558422 7.01582 0.558419 7.11587 1.27176L7.58131 4.59044C7.63017 4.9388 7.95824 5.17715 8.30465 5.11597L11.6047 4.53311C12.3141 4.40782 12.6325 5.38785 11.985 5.70343L8.97257 7.17162C8.65635 7.32574 8.53104 7.71141 8.69628 8.02196L10.2704 10.9804C10.6087 11.6163 9.77509 12.222 9.27486 11.7037L6.94764 9.29242C6.70335 9.0393 6.29783 9.0393 6.05354 9.29242L3.72632 11.7037C3.22609 12.222 2.39243 11.6163 2.73078 10.9804L4.3049 8.02196C4.47014 7.71141 4.34483 7.32574 4.02861 7.17162L1.01619 5.70343C0.368682 5.38785 0.687109 4.40782 1.39645 4.53311L4.69653 5.11597C5.04294 5.17715 5.37101 4.9388 5.41987 4.59044L5.88531 1.27176Z" fill="#2B2B2B" stroke="#2B2B2B" stroke-width="1.24259"/>
</svg>
